<?xml version="1.0" encoding="UTF-8"?><svg id="Layer_1" xmlns="http://www.w3.org/2000/svg" viewBox="0 0 1080 1080"><defs><style>.cls-1,.cls-2,.cls-3{fill-rule:evenodd;}.cls-1,.cls-4{fill:#f97a00;}.cls-2{fill:#fed16a;}.cls-5,.cls-3{fill:#16610e;}</style></defs><path class="cls-3" d="m540,493c3.2,1.6,5.4,5,5.4,8.8s-1.8,6.5-4.5,8.3l-.9-10.3-.9,10.3c-2.7-1.8-4.5-4.8-4.5-8.3s2.2-7.2,5.4-8.8"/><path class="cls-3" d="m519.9,501.8c3.4-1.1,7.3-.3,10,2.4,2.5,2.5,3.4,5.9,2.7,9l-7.9-6.7,6.7,7.9c-3.2.7-6.6-.2-9-2.7-2.7-2.7-3.5-6.6-2.4-10"/><path class="cls-3" d="m511.6,516.1c2.2-2.4,5.5-3.5,8.8-2.6,3,.8,5.2,3.1,6.1,5.8l-9.1-1.6,8.7,3.1c-2.2,1.9-5.2,2.8-8.2,2-3.3-.9-5.7-3.5-6.4-6.7"/><path class="cls-3" d="m498.7,521.9c-.1,2.8,1.3,5.6,3.9,7.1,2.3,1.4,5.1,1.3,7.4.2l-6.6-4.6,7.3,3.4c-.1-2.5-1.5-4.9-3.9-6.3-2.6-1.5-5.7-1.3-8.1.2"/><path class="cls-3" d="m507.8,502.1c-.8,2.7-.2,5.7,1.9,7.8,1.9,1.9,4.6,2.6,7.1,2.1l-5.2-6.2,6.2,5.2c.5-2.5-.2-5.1-2.1-7.1-2.1-2.1-5.2-2.8-7.8-1.9"/><path class="cls-3" d="m527.7,488c-2.1,1.9-3,4.8-2.3,7.7.7,2.6,2.7,4.6,5.1,5.4l-1.4-8,2.7,7.6c1.7-1.9,2.4-4.6,1.7-7.2-.8-2.9-3.1-5-5.8-5.6"/><path class="cls-3" d="m494.8,505.1c-1.1,3.4-.3,7.4,2.5,10.1,2.5,2.5,5.9,3.4,9.1,2.7l-6.7-8,8,6.7c.7-3.2-.2-6.6-2.7-9.1-2.7-2.7-6.6-3.5-10.1-2.5"/><path class="cls-3" d="m508.2,487.2c-1.1,3.4-.3,7.4,2.5,10.1,2.5,2.5,5.9,3.4,9.1,2.7l-6.7-8,8,6.7c.7-3.2-.2-6.6-2.7-9.1-2.7-2.7-6.6-3.5-10.1-2.5"/><path class="cls-3" d="m497.8,493.9c-.7,2.2-.2,4.6,1.5,6.3,1.6,1.6,3.7,2.1,5.7,1.7l-4.2-5,5,4.2c.4-2-.2-4.2-1.7-5.7-1.7-1.7-4.2-2.2-6.3-1.5"/><path class="cls-3" d="m521.4,482.9c-1.2,1.1-1.7,2.7-1.3,4.4.4,1.5,1.5,2.6,2.9,3l-.8-4.5,1.6,4.3c1-1.1,1.4-2.6,1-4.1-.4-1.6-1.8-2.8-3.3-3.2"/><path class="cls-3" d="m534.9,484c-1.2,1.1-1.7,2.7-1.3,4.4.4,1.5,1.5,2.6,2.9,3l-.8-4.5,1.6,4.3c1-1.1,1.4-2.6,1-4.1-.4-1.6-1.8-2.8-3.3-3.2"/><path class="cls-3" d="m528.7,475.2c2,1,3.4,3.1,3.4,5.6s-1.1,4.1-2.8,5.2l-.6-6.5-.6,6.5c-1.7-1.1-2.8-3-2.8-5.2s1.4-4.5,3.4-5.6"/><path class="cls-3" d="m491.1,522.3c1.3.9,3.1,1,4.6.1,1.3-.8,2.1-2.1,2.2-3.6l-4.1,1.9,3.8-2.6c-1.3-.6-2.8-.7-4.2.1-1.5.8-2.3,2.4-2.2,4"/><path class="cls-3" d="m560.1,501.8c-3.4-1.1-7.3-.3-10,2.4-2.5,2.5-3.4,5.9-2.7,9l7.9-6.7-6.7,7.9c3.2.7,6.6-.2,9-2.7,2.7-2.7,3.5-6.6,2.4-10"/><path class="cls-3" d="m581.3,521.9c.1,2.8-1.3,5.6-3.9,7.1-2.4,1.4-5.1,1.3-7.4.2l6.6-4.6-7.3,3.4c.1-2.5,1.5-4.9,3.9-6.3,2.6-1.5,5.7-1.3,8.1.2"/><path class="cls-3" d="m572.2,502.1c.8,2.7.2,5.7-1.9,7.8-1.9,1.9-4.6,2.6-7.1,2.1l5.2-6.2-6.2,5.2c-.5-2.5.2-5.1,2.1-7.1,2.1-2.1,5.2-2.8,7.8-1.9"/><path class="cls-3" d="m552.3,488c2.1,1.9,3,4.8,2.3,7.7-.7,2.6-2.7,4.6-5.1,5.4l1.4-8-2.7,7.6c-1.7-1.9-2.4-4.6-1.7-7.2.8-2.9,3.1-5,5.8-5.6"/><path class="cls-3" d="m585.2,505.1c1.1,3.4.3,7.4-2.5,10.1-2.5,2.5-5.9,3.4-9.1,2.7l6.7-8-8,6.7c-.7-3.2.2-6.6,2.7-9.1,2.7-2.7,6.6-3.5,10.1-2.5"/><path class="cls-3" d="m571.8,487.2c1.1,3.4.3,7.4-2.5,10.1-2.5,2.5-5.9,3.4-9.1,2.7l6.7-8-8,6.7c-.7-3.2.2-6.6,2.7-9.1,2.7-2.7,6.6-3.5,10.1-2.5"/><path class="cls-3" d="m582.2,493.9c.7,2.2.2,4.6-1.5,6.3-1.6,1.6-3.7,2.1-5.7,1.7l4.2-5-5,4.2c-.4-2,.2-4.2,1.7-5.7,1.7-1.7,4.2-2.2,6.3-1.5"/><path class="cls-3" d="m558.6,482.9c1.2,1.1,1.7,2.7,1.3,4.4-.4,1.5-1.5,2.6-2.9,3l.8-4.5-1.6,4.3c-1-1.1-1.4-2.6-1-4.1.4-1.6,1.8-2.8,3.3-3.2"/><path class="cls-3" d="m545.1,484c1.2,1.1,1.7,2.7,1.3,4.4-.4,1.5-1.5,2.6-2.9,3l.8-4.5-1.6,4.3c-1-1.1-1.4-2.6-1-4.1.4-1.6,1.8-2.8,3.3-3.2"/><path class="cls-3" d="m551.3,475.2c-2,1-3.4,3.1-3.4,5.6s1.1,4.1,2.8,5.2l.6-6.5.6,6.5c1.7-1.1,2.8-3,2.8-5.2s-1.4-4.5-3.4-5.6"/><path class="cls-3" d="m588.9,522.3c-1.3.9-3.1,1-4.6.1-1.3-.8-2.1-2.1-2.2-3.6l4.1,1.9-3.8-2.6c1.3-.6,2.8-.7,4.2.1,1.5.8,2.3,2.4,2.2,4"/><path class="cls-3" d="m579.9,536.6c-1.3.9-3.1,1-4.6.1-1.3-.8-2.1-2.1-2.2-3.6l4.1,1.9-3.8-2.6c1.3-.6,2.8-.7,4.2.1,1.5.8,2.3,2.4,2.2,4"/><path class="cls-3" d="m540,465c3.2,1.6,5.4,5,5.4,8.8s-1.8,6.5-4.5,8.3l-.9-10.3-.9,10.3c-2.7-1.8-4.5-4.8-4.5-8.3s2.2-7.2,5.4-8.8"/><path class="cls-3" d="m568.4,516.1c-2.2-2.4-5.5-3.5-8.8-2.6-3,.8-5.2,3.1-6.1,5.8l9.1-1.6-8.7,3.1c2.2,1.9,5.2,2.8,8.2,2,3.3-.9,5.7-3.5,6.4-6.7"/><path class="cls-3" d="m566.6,525.6c-.6,1.2-1.9,2.1-3.4,2.1s-2.5-.7-3.2-1.7l4-.3-4-.3c.7-1,1.9-1.7,3.2-1.7s2.8.8,3.4,2.1"/><path class="cls-3" d="m571.6,519c.4,1.3.1,2.8-.9,3.9-.9.9-2.3,1.3-3.5,1l2.6-3-3,2.6c-.3-1.2,0-2.5,1-3.5,1-1,2.5-1.4,3.9-.9"/><path class="cls-1" d="m497.9,572.6l-2.3.8.3-2.4c.8-7.5,1.6-15,2.3-22.5l-6.1,30.9s12.7-10.1,32.7-8c-8.8-2.2-18.1-1.9-26.8,1.2"/><path class="cls-1" d="m536.2,574.3c-11.9-6.4-25.9-7.6-38.8-3.1,1.1-10.2,2.1-20.3,3.2-30.5,8.1-2.8,16.6-4,25.1-3.7h0c2.2,3.5,3.7,7.6,4.9,12.3,1.1,4.7,2,9.4,3,14.1.8,3.7,1.6,7.3,2.7,10.9h0Z"/><path class="cls-3" d="m555,537c8.3-.3,16.6,1,24.5,3.7,1.1,10.2,2.1,20.3,3.2,30.5-13.3-4.6-27.9-3.2-40.1,3.8.4-2.4.8-4.7,1.2-7.1,1.2-6.1,2.8-12.2,4.7-18.1,1.5-4.5,3.6-8.9,6.4-12.8Z"/><path class="cls-3" d="m582.1,572.6l2.3.8-.3-2.4c-.8-7.5-1.6-15-2.3-22.5l6.1,30.9s-12.7-10.1-32.7-8c8.8-2.2,18.1-1.9,26.8,1.2"/><path class="cls-2" d="m539.9,579.4c-3.9-10.4-5.1-20.1-7.7-30.5-2.2-9.1-6.4-18.7-19.2-24.3,0,0,17.9-2,26.8,20.3,0,0,5.6-14.7,19-14.7,0,0-7.8,5.6-12.3,19-4.5,13.4-5.6,23.5-6.7,30.2"/><path class="cls-1" d="m540.2,514.9c4.8,0,8.7,3.9,8.7,8.7s-3.9,8.7-8.7,8.7-8.7-3.9-8.7-8.7,3.9-8.7,8.7-8.7"/><path class="cls-5" d="m496,598.2c.5,0,.9,0,1.2-.1.3,0,.5-.2.7-.3.2-.1.3-.3.4-.5,0-.2.1-.4.1-.6,0-.5-.2-.9-.7-1.2-.5-.3-1.2-.7-2.3-1-.5-.2-1-.4-1.4-.6-.5-.2-.9-.5-1.3-.8-.4-.3-.7-.7-.9-1.2-.2-.5-.4-1-.4-1.7s.1-1.3.4-1.8c.3-.5.6-1,1.1-1.4s1-.7,1.7-.9c.7-.2,1.4-.3,2.2-.3s1.8.1,2.6.3,1.3.4,1.8.7l-1,2.6c-.4-.2-.9-.4-1.4-.6-.5-.2-1.1-.2-1.8-.2s-1.4.1-1.7.3c-.3.2-.5.6-.5,1s0,.5.2.7c.1.2.3.3.5.5.2.1.5.3.8.4.3.1.6.2,1,.4.8.3,1.4.6,2,.8.6.3,1,.6,1.4,1,.4.4.7.8.8,1.3.2.5.3,1.1.3,1.8,0,1.4-.5,2.4-1.4,3.2-1,.8-2.4,1.1-4.3,1.1s-1.2,0-1.8-.1c-.5,0-1-.2-1.4-.3s-.7-.2-1-.4c-.3-.1-.5-.2-.7-.4l.9-2.6c.4.2,1,.5,1.6.6.6.2,1.4.3,2.4.3Z"/><path class="cls-5" d="m515.1,586v2.8h-4.4v11.9h-3.3v-11.9h-4.4v-2.8h12.2Z"/><path class="cls-5" d="m517.6,600.7v-14.7h9.9v2.8h-6.6v2.9h5.9v2.7h-5.9v3.5h7.1v2.8h-10.4Z"/><path class="cls-5" d="m540.6,600.7c-.2-.5-.3-1-.5-1.6-.2-.5-.4-1.1-.6-1.6h-5.7c-.2.5-.4,1.1-.6,1.6-.2.5-.4,1.1-.5,1.6h-3.4c.6-1.6,1.1-3,1.6-4.4.5-1.3,1-2.6,1.5-3.8.5-1.2.9-2.3,1.4-3.4.5-1.1.9-2.1,1.4-3.1h3.1c.5,1,1,2.1,1.4,3.1.5,1.1.9,2.2,1.4,3.4.5,1.2,1,2.5,1.5,3.8.5,1.3,1,2.8,1.6,4.4h-3.5Zm-4-11.4c0,.2-.2.5-.3.9-.1.4-.3.8-.5,1.3-.2.5-.4,1-.6,1.6-.2.6-.5,1.2-.7,1.8h4.2c-.2-.6-.4-1.2-.7-1.8-.2-.6-.4-1.1-.6-1.6-.2-.5-.4-.9-.5-1.3-.1-.4-.3-.7-.3-.9Z"/><path class="cls-5" d="m550.2,586c.3.5.5,1,.9,1.7.3.7.7,1.4,1,2.2.4.8.7,1.6,1.1,2.4.4.8.7,1.6,1,2.4.3-.7.6-1.5,1-2.4.4-.8.7-1.6,1.1-2.4.4-.8.7-1.5,1-2.2.3-.7.6-1.3.9-1.7h3c.1,1,.3,2.1.4,3.3.1,1.2.2,2.5.3,3.8,0,1.3.2,2.6.3,3.9,0,1.3.1,2.6.2,3.7h-3.2c0-1.4,0-3-.2-4.7,0-1.7-.2-3.4-.3-5.1-.3.6-.5,1.3-.9,2-.3.7-.6,1.4-.9,2.2s-.6,1.4-.9,2.1c-.3.7-.5,1.2-.7,1.7h-2.3c-.2-.5-.4-1-.7-1.7-.3-.7-.6-1.3-.9-2.1s-.6-1.4-.9-2.2c-.3-.7-.6-1.4-.9-2-.1,1.7-.2,3.4-.3,5.1s-.1,3.2-.2,4.7h-3.2c0-1.2.1-2.4.2-3.7,0-1.3.2-2.6.3-3.9,0-1.3.2-2.6.3-3.8.1-1.2.3-2.3.4-3.3h3.2Z"/><path class="cls-5" d="m571.1,586h3.3v14.7h-3.3v-14.7Z"/><path class="cls-5" d="m589,586v2.8h-4.4v11.9h-3.3v-11.9h-4.4v-2.8h12.2Z"/><path class="cls-4" d="m491,614.8v-8.2h5.2v1.3h-3.7v2.1h3.3v1.3h-3.3v3.6h-1.5Z"/><path class="cls-4" d="m507,611.7c0,.5,0,.9-.2,1.3-.1.4-.3.7-.6,1s-.6.5-.9.7c-.4.2-.8.2-1.2.2s-.8,0-1.2-.2c-.4-.2-.7-.4-.9-.7-.3-.3-.5-.6-.6-1-.1-.4-.2-.8-.2-1.3s0-.9.2-1.3c.1-.4.3-.7.6-1,.3-.3.6-.5.9-.7.4-.2.8-.2,1.2-.2s.8,0,1.2.2c.4.2.7.4.9.7.3.3.5.6.6,1,.1.4.2.8.2,1.3Zm-1.5,0c0-.6-.1-1.1-.4-1.5-.3-.4-.6-.5-1.1-.5s-.8.2-1.1.5c-.3.4-.4.8-.4,1.5s.1,1.1.4,1.5c.3.4.6.5,1.1.5s.8-.2,1.1-.5c.3-.4.4-.9.4-1.5Z"/><path class="cls-4" d="m517.6,614.6c-.3,0-.6.1-1.1.2-.4,0-.9.1-1.4.1s-.9,0-1.2-.2c-.3-.1-.6-.3-.8-.6-.2-.3-.3-.6-.4-.9,0-.3-.1-.7-.1-1.1v-3.4h1.4v3.2c0,.7,0,1.1.3,1.4.2.3.5.4,1,.4s.4,0,.5,0c.2,0,.3,0,.4,0v-5h1.4v6Z"/><path class="cls-4" d="m523.6,608.9c.3,0,.6-.2,1.1-.2.4,0,.9-.1,1.5-.1s.9,0,1.3.2c.3.1.6.3.8.6.2.2.3.5.4.9,0,.3.1.7.1,1.1v3.5h-1.4v-3.2c0-.3,0-.6,0-.8,0-.2-.1-.4-.2-.6,0-.1-.2-.3-.4-.3-.2,0-.4-.1-.6-.1s-.4,0-.6,0c-.2,0-.3,0-.4,0v5h-1.4v-6Z"/><path class="cls-4" d="m539.8,614.6c-.3,0-.6.2-1.1.2s-.9.1-1.3.1-.9,0-1.3-.2c-.4-.1-.7-.4-1-.6-.3-.3-.5-.6-.6-1-.1-.4-.2-.8-.2-1.3s0-.9.2-1.3c.1-.4.3-.7.5-1s.5-.5.9-.7c.3-.2.7-.2,1.2-.2s.6,0,.8.1c.2,0,.4.1.6.2v-3l1.4-.2v8.9Zm-4.1-2.9c0,.6.1,1.1.4,1.5.3.4.7.5,1.2.5s.4,0,.6,0c.2,0,.3,0,.4,0v-3.5c-.1,0-.3-.2-.5-.2-.2,0-.4-.1-.7-.1-.5,0-.9.2-1.1.5s-.4.8-.4,1.4Z"/><path class="cls-4" d="m547.8,608.5c.5,0,.9,0,1.2.2s.6.3.8.5c.2.2.3.5.4.8,0,.3.1.6.1,1v3.7c-.2,0-.6.1-1,.2-.4,0-.9.1-1.5.1s-.7,0-1-.1c-.3,0-.6-.2-.8-.3-.2-.2-.4-.4-.5-.6-.1-.3-.2-.6-.2-.9s0-.7.2-.9c.1-.2.3-.4.6-.6.2-.2.5-.3.8-.3.3,0,.6,0,1,0s.3,0,.5,0c.2,0,.4,0,.6,0v-.2c0-.2,0-.3,0-.5,0-.1-.1-.3-.2-.4,0-.1-.2-.2-.4-.3-.2,0-.4,0-.6,0s-.6,0-.9,0-.5.1-.7.2l-.2-1.2c.2,0,.4-.1.8-.2.3,0,.7,0,1.1,0Zm.1,5.3c.4,0,.8,0,1,0v-1.6c0,0-.2,0-.3,0-.1,0-.3,0-.5,0s-.3,0-.5,0c-.2,0-.3,0-.4.1-.1,0-.2.2-.3.3,0,.1-.1.3-.1.4,0,.3.1.6.3.7.2.1.5.2.9.2Z"/><path class="cls-4" d="m556.1,607.1l1.4-.2v1.9h2.2v1.2h-2.2v2.5c0,.5,0,.8.2,1.1s.4.3.8.3.5,0,.7,0c.2,0,.4-.1.5-.2l.2,1.1c-.2,0-.4.1-.6.2s-.6.1-.9.1-.8,0-1.1-.2c-.3-.1-.5-.3-.7-.5-.2-.2-.3-.5-.4-.8s-.1-.7-.1-1.1v-5.3Z"/><path class="cls-4" d="m566.8,606.9c0,.3,0,.5-.3.6-.2.2-.4.2-.6.2s-.5,0-.6-.2c-.2-.2-.3-.4-.3-.6s0-.5.3-.6c.2-.2.4-.2.6-.2s.4,0,.6.2c.2.2.3.4.3.6Zm-.2,8h-1.4v-6.2h1.4v6.2Z"/><path class="cls-4" d="m578.1,611.7c0,.5,0,.9-.2,1.3-.1.4-.3.7-.6,1s-.6.5-.9.7c-.4.2-.8.2-1.2.2s-.8,0-1.2-.2c-.4-.2-.7-.4-.9-.7s-.5-.6-.6-1c-.1-.4-.2-.8-.2-1.3s0-.9.2-1.3c.1-.4.3-.7.6-1,.3-.3.6-.5.9-.7.4-.2.8-.2,1.2-.2s.8,0,1.2.2c.4.2.7.4.9.7.3.3.5.6.6,1,.1.4.2.8.2,1.3Zm-1.5,0c0-.6-.1-1.1-.4-1.5-.3-.4-.6-.5-1.1-.5s-.8.2-1.1.5-.4.8-.4,1.5.1,1.1.4,1.5.6.5,1.1.5.8-.2,1.1-.5c.3-.4.4-.9.4-1.5Z"/><path class="cls-4" d="m583.7,608.9c.3,0,.6-.2,1.1-.2.4,0,.9-.1,1.5-.1s.9,0,1.3.2c.3.1.6.3.8.6.2.2.3.5.4.9,0,.3.1.7.1,1.1v3.5h-1.4v-3.2c0-.3,0-.6,0-.8,0-.2-.1-.4-.2-.6,0-.1-.2-.3-.4-.3-.2,0-.4-.1-.6-.1s-.4,0-.6,0c-.2,0-.3,0-.4,0v5h-1.4v-6Z"/></svg>